<svg xmlns="http://www.w3.org/2000/svg" viewBox="0 0 1920 1080"><g transform="
          rotate(0 960 540) 
          translate(-0 -0)
          scale(1)
        "><rect width="1920" height="1080" fill="rgb(131, 102, 133)"></rect><g transform="translate(0, 0)"><path fill="rgb(138, 110, 139)" fill-opacity="1" d="M0,88.236L80,87.519C160,86.802,320,85.368,480,85.145C640,84.923,800,85.912,960,86.024C1120,86.135,1280,85.368,1440,75.796C1600,66.223,1760,47.846,1840,38.657L1920,29.468L1920,1080L1840,1080C1760,1080,1600,1080,1440,1080C1280,1080,1120,1080,960,1080C800,1080,640,1080,480,1080C320,1080,160,1080,80,1080L0,1080Z"></path></g><g transform="translate(0, 90)"><path fill="rgb(145, 118, 146)" fill-opacity="1" d="M0,75.289L80,62.971C160,50.653,320,26.017,480,24.62C640,23.223,800,45.064,960,50.505C1120,55.945,1280,44.984,1440,34.839C1600,24.694,1760,15.364,1840,10.699L1920,6.034L1920,990L1840,990C1760,990,1600,990,1440,990C1280,990,1120,990,960,990C800,990,640,990,480,990C320,990,160,990,80,990L0,990Z"></path></g><g transform="translate(0, 180)"><path fill="rgb(152, 126, 153)" fill-opacity="1" d="M0,62.919L80,56.857C160,50.795,320,38.672,480,32.604C640,26.535,800,26.523,960,35.319C1120,44.115,1280,61.719,1440,71.174C1600,80.629,1760,81.935,1840,82.587L1920,83.24L1920,900L1840,900C1760,900,1600,900,1440,900C1280,900,1120,900,960,900C800,900,640,900,480,900C320,900,160,900,80,900L0,900Z"></path></g><g transform="translate(0, 270)"><path fill="rgb(159, 134, 159)" fill-opacity="1" d="M0,14.729L80,16.737C160,18.746,320,22.763,480,31.568C640,40.373,800,53.966,960,63.582C1120,73.199,1280,78.838,1440,75.129C1600,71.42,1760,58.363,1840,51.835L1920,45.306L1920,810L1840,810C1760,810,1600,810,1440,810C1280,810,1120,810,960,810C800,810,640,810,480,810C320,810,160,810,80,810L0,810Z"></path></g><g transform="translate(0, 360)"><path fill="rgb(166, 142, 166)" fill-opacity="1" d="M0,4.768L80,4.085C160,3.402,320,2.035,480,10.27C640,18.504,800,36.339,960,41.946C1120,47.552,1280,40.928,1440,34.044C1600,27.16,1760,20.016,1840,16.443L1920,12.871L1920,720L1840,720C1760,720,1600,720,1440,720C1280,720,1120,720,960,720C800,720,640,720,480,720C320,720,160,720,80,720L0,720Z"></path></g><g transform="translate(0, 450)"><path fill="rgb(173, 150, 172)" fill-opacity="1" d="M0,22.594L80,23.273C160,23.951,320,25.308,480,33.264C640,41.22,800,55.775,960,65.688C1120,75.6,1280,80.869,1440,84.03C1600,87.19,1760,88.242,1840,88.768L1920,89.294L1920,630L1840,630C1760,630,1600,630,1440,630C1280,630,1120,630,960,630C800,630,640,630,480,630C320,630,160,630,80,630L0,630Z"></path></g><g transform="translate(0, 540)"><path fill="rgb(179, 158, 179)" fill-opacity="1" d="M0,49.621L80,45.711C160,41.802,320,33.983,480,27.159C640,20.335,800,14.506,960,23.118C1120,31.731,1280,54.786,1440,68.042C1600,81.297,1760,84.753,1840,86.481L1920,88.209L1920,540L1840,540C1760,540,1600,540,1440,540C1280,540,1120,540,960,540C800,540,640,540,480,540C320,540,160,540,80,540L0,540Z"></path></g><g transform="translate(0, 630)"><path fill="rgb(186, 166, 185)" fill-opacity="1" d="M0,88.945L80,83.693C160,78.441,320,67.938,480,61.379C640,54.82,800,52.206,960,46.865C1120,41.523,1280,33.454,1440,39.827C1600,46.201,1760,67.016,1840,77.424L1920,87.832L1920,450L1840,450C1760,450,1600,450,1440,450C1280,450,1120,450,960,450C800,450,640,450,480,450C320,450,160,450,80,450L0,450Z"></path></g><g transform="translate(0, 720)"><path fill="rgb(193, 174, 192)" fill-opacity="1" d="M0,77.468L80,78.214C160,78.959,320,80.449,480,78.72C640,76.991,800,72.042,960,59.697C1120,47.352,1280,27.61,1440,29.975C1600,32.339,1760,56.808,1840,69.043L1920,81.278L1920,360L1840,360C1760,360,1600,360,1440,360C1280,360,1120,360,960,360C800,360,640,360,480,360C320,360,160,360,80,360L0,360Z"></path></g><g transform="translate(0, 810)"><path fill="rgb(200, 182, 198)" fill-opacity="1" d="M0,41.226L80,36.549C160,31.872,320,22.517,480,22.324C640,22.132,800,31.1,960,43.598C1120,56.096,1280,72.124,1440,73.085C1600,74.046,1760,59.941,1840,52.889L1920,45.837L1920,270L1840,270C1760,270,1600,270,1440,270C1280,270,1120,270,960,270C800,270,640,270,480,270C320,270,160,270,80,270L0,270Z"></path></g><g transform="translate(0, 900)"><path fill="rgb(207, 190, 205)" fill-opacity="1" d="M0,38.282L80,32.848C160,27.415,320,16.548,480,10.986C640,5.424,800,5.167,960,10.059C1120,14.952,1280,24.995,1440,38.606C1600,52.217,1760,69.396,1840,77.986L1920,86.575L1920,180L1840,180C1760,180,1600,180,1440,180C1280,180,1120,180,960,180C800,180,640,180,480,180C320,180,160,180,80,180L0,180Z"></path></g><g transform="translate(0, 990)"><path fill="rgb(214, 198, 211)" fill-opacity="1" d="M0,69.988L80,60.373C160,50.758,320,31.527,480,33.894C640,36.26,800,60.222,960,63.966C1120,67.709,1280,51.232,1440,47.371C1600,43.509,1760,52.263,1840,56.639L1920,61.016L1920,90L1840,90C1760,90,1600,90,1440,90C1280,90,1120,90,960,90C800,90,640,90,480,90C320,90,160,90,80,90L0,90Z"></path></g></g></svg>